#N canvas -1375 160 1339 950 10;
#X declare -lib mrpeach;
#X declare -path ./;
#X obj 32 25 import mrpeach;
#X msg 32 148 connect localhost 5454;
#X msg 32 169 disconnect;
#X obj 32 516 udpsend;
#X obj 32 126 loadbang;
#X floatatom 57 644 5 0 0 0 - - -;
#X msg 57 666 send /Mage/alpha \$1;
#X obj 47 489 packOSC;
#X obj 32 538 tgl 15 0 empty empty connected 20 7 0 8 -24198 -241291
-1 1 1;
#X obj 57 690 s alpha;
#X obj 47 217 r alpha;
#X floatatom 280 76 5 0 0 0 - - -;
#X msg 280 122 send /Mage/pitch \$1 \$2;
#X obj 280 100 pack f f;
#X floatatom 318 54 5 0 0 0 - - -;
#X obj 280 146 s pitch;
#X floatatom 280 284 5 0 0 0 - - -;
#X obj 280 308 pack f;
#X msg 280 330 send /Mage/alpha \$1;
#X obj 280 354 s alpha;
#X obj 47 196 r pitch;
#X floatatom 417 284 5 0 0 0 - - -;
#X obj 417 308 pack f;
#X msg 417 330 send /Mage/gamma \$1;
#X obj 417 354 s gamma;
#X obj 47 239 r gamma;
#X floatatom 553 284 5 0 0 0 - - -;
#X obj 553 308 pack f;
#X msg 553 330 send /Mage/porder \$1;
#X obj 553 354 s porder;
#X obj 47 261 r porder;
#X floatatom 280 179 5 0 0 0 - - -;
#X obj 280 203 pack f;
#X floatatom 417 179 5 0 0 0 - - -;
#X obj 417 203 pack f;
#X floatatom 553 179 5 0 0 0 - - -;
#X obj 553 203 pack f;
#X msg 552 122 send /Mage/speed \$1 \$2;
#X obj 552 146 s speed;
#X obj 47 282 r speed;
#X msg 280 225 send /Mage/lspeed \$1;
#X obj 280 249 s lspeed;
#X obj 47 303 r lspeed;
#X msg 417 225 send /Mage/volume \$1;
#X obj 417 249 s volume;
#X obj 47 324 r volume;
#X msg 553 225 send /Mage/duration \$1;
#X obj 553 249 s duration;
#X obj 47 345 r duration;
#X obj 739 180 bng 15 250 50 0 empty empty empty 17 7 0 10 -262144
-1 -1;
#X obj 739 203 pack b;
#X obj 47 367 r resetMage;
#X msg 739 225 send /Mage/resetVocoder;
#X obj 739 249 s resetVocoder;
#X msg 739 121 send /Mage/resetMage;
#X obj 739 145 s resetMage;
#X obj 47 390 r resetVocoder;
#X msg 497 567 send /Mage/addEngine;
#X obj 497 591 s addEngine;
#X obj 47 412 r addEngine;
#X obj 47 434 r setDefaultEngine;
#X obj 497 545 pack s s;
#X msg 497 521 slt;
#X msg 497 500 rms;
#X msg 497 479 jmk;
#X msg 497 458 clb;
#X msg 497 437 bdl;
#X msg 497 417 awb;
#X msg 280 521 slt;
#X msg 280 500 rms;
#X msg 280 479 jmk;
#X msg 280 458 clb;
#X msg 280 437 bdl;
#X msg 280 417 awb;
#X obj 280 591 s setDefaultEngine;
#X obj 280 545 pack s;
#X msg 280 567 send /Mage/setDefaultEngine \$1;
#X obj 739 99 pack b;
#X obj 739 76 bng 15 250 50 0 empty empty empty 17 7 0 10 -262144 -1
-1;
#X obj 32 47 declare -path ./;
#X msg 542 397 symbol configAWB.conf;
#N canvas -715 425 322 223 makepath 0;
#X obj 64 110 pack s s;
#X obj 64 88 getdir 1;
#X obj 64 66 bng 15 250 50 0 empty empty empty 17 7 0 10 -262144 -1
-1;
#X text 199 47 <----;
#X msg 135 49 symbol \$1;
#X obj 64 132 makesymbol %s/inouts/%s;
#X obj 135 26 inlet;
#X obj 64 155 outlet;
#X connect 0 0 5 0;
#X connect 1 0 0 0;
#X connect 2 0 1 0;
#X connect 4 0 0 1;
#X connect 4 0 2 0;
#X connect 5 0 7 0;
#X connect 6 0 4 0;
#X restore 542 521 pd makepath;
#X msg 542 417 symbol configBDL.conf;
#X msg 542 438 symbol configCLB.conf;
#X msg 542 459 symbol configJMK.conf;
#X msg 542 480 symbol configRMS.conf;
#X msg 542 500 symbol configSLT.conf;
#X msg 318 -6 0;
#X msg 318 14 1;
#X msg 318 34 2;
#X obj 318 75 t b f;
#X floatatom 552 74 5 0 0 0 - - -;
#X obj 552 98 pack f f;
#X floatatom 590 52 5 0 0 0 - - -;
#X msg 590 -9 0;
#X msg 590 11 1;
#X msg 590 31 2;
#X obj 590 73 t b f;
#X text 345 -7 <--- overwrite;
#X text 345 12 <--- shift;
#X text 346 32 <--- scale;
#X text 617 -9 <--- overwrite;
#X text 617 10 <--- shift;
#X text 618 30 <--- scale;
#X obj 1025 585 t b s;
#X connect 1 0 3 0;
#X connect 2 0 3 0;
#X connect 3 0 8 0;
#X connect 4 0 1 0;
#X connect 5 0 6 0;
#X connect 6 0 9 0;
#X connect 7 0 3 0;
#X connect 10 0 7 0;
#X connect 11 0 13 0;
#X connect 12 0 15 0;
#X connect 13 0 12 0;
#X connect 14 0 90 0;
#X connect 16 0 17 0;
#X connect 17 0 18 0;
#X connect 18 0 19 0;
#X connect 20 0 7 0;
#X connect 21 0 22 0;
#X connect 22 0 23 0;
#X connect 23 0 24 0;
#X connect 25 0 7 0;
#X connect 26 0 27 0;
#X connect 27 0 28 0;
#X connect 28 0 29 0;
#X connect 30 0 7 0;
#X connect 31 0 32 0;
#X connect 32 0 40 0;
#X connect 33 0 34 0;
#X connect 34 0 43 0;
#X connect 35 0 36 0;
#X connect 36 0 46 0;
#X connect 37 0 38 0;
#X connect 39 0 7 0;
#X connect 40 0 41 0;
#X connect 42 0 7 0;
#X connect 43 0 44 0;
#X connect 45 0 7 0;
#X connect 46 0 47 0;
#X connect 48 0 7 0;
#X connect 49 0 50 0;
#X connect 50 0 52 0;
#X connect 51 0 7 0;
#X connect 52 0 53 0;
#X connect 54 0 55 0;
#X connect 56 0 7 0;
#X connect 57 0 58 0;
#X connect 59 0 7 0;
#X connect 60 0 7 0;
#X connect 61 0 57 0;
#X connect 62 0 61 0;
#X connect 63 0 61 0;
#X connect 64 0 61 0;
#X connect 65 0 61 0;
#X connect 66 0 61 0;
#X connect 67 0 61 0;
#X connect 68 0 75 0;
#X connect 69 0 75 0;
#X connect 70 0 75 0;
#X connect 71 0 75 0;
#X connect 72 0 75 0;
#X connect 73 0 75 0;
#X connect 75 0 76 0;
#X connect 76 0 74 0;
#X connect 77 0 54 0;
#X connect 78 0 77 0;
#X connect 80 0 81 0;
#X connect 81 0 61 1;
#X connect 82 0 81 0;
#X connect 83 0 81 0;
#X connect 84 0 81 0;
#X connect 85 0 81 0;
#X connect 86 0 81 0;
#X connect 87 0 14 0;
#X connect 88 0 14 0;
#X connect 89 0 14 0;
#X connect 90 0 11 0;
#X connect 90 1 13 1;
#X connect 91 0 92 0;
#X connect 92 0 37 0;
#X connect 93 0 97 0;
#X connect 94 0 93 0;
#X connect 95 0 93 0;
#X connect 96 0 93 0;
#X connect 97 0 91 0;
#X connect 97 1 92 1;
